<svg version="1.1" xmlns="http://www.w3.org/2000/svg" viewBox="0 0 304.0277777777774 270.30045164957664" width="912.0833333333321" height="810.9013549487299">
  <!-- svg-source:excalidraw -->
  
  <defs>
    <style class="style-fonts">
      @font-face {
        font-family: "Virgil";
        src: url("https://excalidraw.com/Virgil.woff2");
      }
      @font-face {
        font-family: "Cascadia";
        src: url("https://excalidraw.com/Cascadia.woff2");
      }
      @font-face {
        font-family: "Assistant";
        src: url("https://excalidraw.com/Assistant-Regular.woff2");
      }
    </style>
    
  </defs>
  <g stroke-linecap="round" transform="translate(139.6040906713215 10) rotate(0 13.75 110.73091306798597)"><path d="M6.88 0 C12.9 -2.02, 16.05 -1.59, 20.63 0 C26.12 2.87, 27.2 1.68, 27.5 6.88 C27.66 62.62, 31.1 121.56, 27.5 214.59 C30.95 215.57, 22.11 218.28, 20.63 221.46 C17.34 220.72, 13.33 220.5, 6.88 221.46 C4.87 219.81, -0.91 222.67, 0 214.59 C-0.62 155.24, 1.96 90.17, 0 6.88 C-0.07 -0.7, 5.61 3.51, 6.88 0" stroke="none" stroke-width="0" fill="#a18072"></path><path d="M6.88 0 C12.78 0.24, 14.88 -0.32, 20.63 0 M6.88 0 C12.05 -0.71, 16.8 0.13, 20.63 0 M20.63 0 C23.9 -0.72, 28.95 1.05, 27.5 6.88 M20.63 0 C26.05 -1.11, 26.78 1.2, 27.5 6.88 M27.5 6.88 C26 71.17, 27.57 136.89, 27.5 214.59 M27.5 6.88 C29.27 88.56, 27.94 170.64, 27.5 214.59 M27.5 214.59 C26.86 220.1, 23.65 220.38, 20.63 221.46 M27.5 214.59 C29.44 216.92, 24.28 222.39, 20.63 221.46 M20.63 221.46 C16.87 220.38, 11.88 221.72, 6.88 221.46 M20.63 221.46 C15.11 220.96, 11.41 221.89, 6.88 221.46 M6.88 221.46 C1.62 221.66, -1.04 220.76, 0 214.59 M6.88 221.46 C4.46 220.57, 1.64 217.17, 0 214.59 M0 214.59 C0.41 146.84, -0.48 78.58, 0 6.88 M0 214.59 C-1.09 153.79, -1.24 93.28, 0 6.88 M0 6.88 C-0.65 3.36, 3.12 -0.23, 6.88 0 M0 6.88 C1.8 2.63, 2.29 -0.57, 6.88 0" stroke="#1e1e1e" stroke-width="4" fill="none"></path></g><g stroke-linecap="round" transform="translate(10 231.55045164957664) rotate(0 142.0138888888887 14.375)"><path d="M7.19 0 C97.95 -0.03, 190.01 -2.77, 276.84 0 C285.13 -0.11, 284.44 2.56, 284.03 7.19 C283.37 11.34, 282.07 17.98, 284.03 21.56 C287.53 27.65, 281.84 26.4, 276.84 28.75 C214.29 29.42, 144.8 26.05, 7.19 28.75 C-0.21 25.24, -2.68 23.92, 0 21.56 C2.57 17.78, 1.01 12.34, 0 7.19 C-3.37 3.02, -0.86 1.8, 7.19 0" stroke="none" stroke-width="0" fill="#a18072"></path><path d="M7.19 0 C89.74 -0.53, 173.58 -1.04, 276.84 0 M7.19 0 C110.86 1.12, 215.15 0.76, 276.84 0 M276.84 0 C280.55 1.68, 282.07 1.59, 284.03 7.19 M276.84 0 C282.56 1.06, 283.4 0.2, 284.03 7.19 M284.03 7.19 C284.33 13.39, 283.62 18.08, 284.03 21.56 M284.03 7.19 C284.35 10.05, 283.99 13.02, 284.03 21.56 M284.03 21.56 C285.62 28.24, 280.85 30.18, 276.84 28.75 M284.03 21.56 C282.03 26.96, 282.53 27.87, 276.84 28.75 M276.84 28.75 C178.5 28.94, 82.09 30.08, 7.19 28.75 M276.84 28.75 C182.47 29.24, 87.11 29.82, 7.19 28.75 M7.19 28.75 C2.17 30.31, 0.29 26.36, 0 21.56 M7.19 28.75 C1.83 28.8, 0.43 26.9, 0 21.56 M0 21.56 C-0.78 16.53, 1.26 10.65, 0 7.19 M0 21.56 C0.61 16.87, -0.15 13.57, 0 7.19 M0 7.19 C0.97 4.31, 0.4 -1.72, 7.19 0 M0 7.19 C-2.03 2.71, 0.78 1.6, 7.19 0" stroke="#1e1e1e" stroke-width="4" fill="none"></path></g><g stroke-linecap="round" transform="translate(37.959333297181274 195.13103446029254) rotate(0 116.49976995672614 16.111111111111313)"><path d="M8.06 0 C53.36 0.97, 101.74 4.95, 224.94 0 C228.15 2.88, 229.88 0.05, 233 8.06 C230.15 15.25, 234.07 18.86, 233 24.17 C235.04 29.05, 227.37 35.71, 224.94 32.22 C178.42 32.72, 136.86 33.97, 8.06 32.22 C3.09 28.76, -0.62 32.59, 0 24.17 C2.18 20.29, -1.3 17.65, 0 8.06 C-1.04 0.65, 1.28 -1.61, 8.06 0" stroke="none" stroke-width="0" fill="#a5d8ff"></path><path d="M8.06 0 C75.86 -3.31, 145.61 -1.57, 224.94 0 M8.06 0 C57.53 -0.31, 107.26 -0.16, 224.94 0 M224.94 0 C229.4 -0.51, 234.94 2.62, 233 8.06 M224.94 0 C230.58 0.1, 232.82 4.37, 233 8.06 M233 8.06 C231.61 15.55, 234.52 20.66, 233 24.17 M233 8.06 C233.64 12.81, 233.55 18.34, 233 24.17 M233 24.17 C231.35 28.21, 228.87 30.27, 224.94 32.22 M233 24.17 C231.28 27.98, 232.18 31.46, 224.94 32.22 M224.94 32.22 C139.99 34.64, 52.15 33.77, 8.06 32.22 M224.94 32.22 C179.38 31.33, 133.27 30.48, 8.06 32.22 M8.06 32.22 C3.51 30.75, 1.82 28.66, 0 24.17 M8.06 32.22 C1.71 32.8, 1.91 31.74, 0 24.17 M0 24.17 C0.06 21.51, -1.33 17.12, 0 8.06 M0 24.17 C-0.24 18.7, 0.04 13.81, 0 8.06 M0 8.06 C0 3.88, 1.27 -1.94, 8.06 0 M0 8.06 C-0.43 3.81, 1.96 -1.53, 8.06 0" stroke="#1971c2" stroke-width="4" fill="none"></path></g><g stroke-linecap="round" transform="translate(61.02162509049003 159.30821993048812) rotate(0 95.10518396512316 16.111111111111313)"><path d="M8.06 0 C58.28 0, 112.02 2.54, 182.15 0 C184.47 1.2, 192.11 5.8, 190.21 8.06 C187.9 12.67, 191.3 19.71, 190.21 24.17 C189.14 27.26, 189.39 31.9, 182.15 32.22 C142.95 34.2, 101.26 31.75, 8.06 32.22 C3.57 30.59, 1.8 31.66, 0 24.17 C1.1 16.07, 1.29 13.81, 0 8.06 C2.7 3.77, 2.74 0.4, 8.06 0" stroke="none" stroke-width="0" fill="#b2f2bb"></path><path d="M8.06 0 C65.77 -0.63, 124.62 -1.96, 182.15 0 M8.06 0 C53.28 -0.82, 99.85 -0.63, 182.15 0 M182.15 0 C189.52 1.06, 188.28 2.13, 190.21 8.06 M182.15 0 C185.87 1.53, 191.33 4.58, 190.21 8.06 M190.21 8.06 C189.59 13.27, 190.55 17.59, 190.21 24.17 M190.21 8.06 C190.55 13.85, 189.86 19.17, 190.21 24.17 M190.21 24.17 C189.87 29.79, 187.76 30.96, 182.15 32.22 M190.21 24.17 C191.74 27.29, 186.51 30.09, 182.15 32.22 M182.15 32.22 C141.04 32.51, 102.74 33.99, 8.06 32.22 M182.15 32.22 C134.03 33.95, 87.98 32.03, 8.06 32.22 M8.06 32.22 C4.66 30.48, -0.05 29.49, 0 24.17 M8.06 32.22 C3.86 30.59, 1.23 28.41, 0 24.17 M0 24.17 C-1.01 21.26, -1.5 17.81, 0 8.06 M0 24.17 C0.07 18.94, 0.45 13.18, 0 8.06 M0 8.06 C1.85 1.14, 4.39 -0.67, 8.06 0 M0 8.06 C-0.71 4.15, 4.46 0.09, 8.06 0" stroke="#2f9e44" stroke-width="4" fill="none"></path></g><g stroke-linecap="round" transform="translate(82.68483011367744 123.24628881291937) rotate(0 73.06508870765197 16.111111111111313)"><path d="M8.06 0 C36.03 -5.12, 59.12 -1.75, 138.07 0 C146.87 -0.17, 147.7 2.23, 146.13 8.06 C145.06 9.62, 146.99 12.17, 146.13 24.17 C142.72 31.96, 146.29 33.8, 138.07 32.22 C91.55 29.41, 42.4 30.2, 8.06 32.22 C0.43 29.39, -2.69 28.57, 0 24.17 C2.34 18.58, -1.05 16.36, 0 8.06 C1.35 1.02, 6.16 1.97, 8.06 0" stroke="none" stroke-width="0" fill="#ffec99"></path><path d="M8.06 0 C55.54 1.34, 98.58 2.87, 138.07 0 M8.06 0 C51.67 -0.57, 96.45 -0.55, 138.07 0 M138.07 0 C144.94 -1.07, 145.27 1.15, 146.13 8.06 M138.07 0 C142.77 -0.48, 145.7 0.67, 146.13 8.06 M146.13 8.06 C147.25 10.74, 145.67 15.08, 146.13 24.17 M146.13 8.06 C145.91 12.55, 145.81 17.13, 146.13 24.17 M146.13 24.17 C145.41 29.84, 144.69 30.88, 138.07 32.22 M146.13 24.17 C145.7 28.69, 141.16 30.7, 138.07 32.22 M138.07 32.22 C94.91 31.57, 50.52 32.03, 8.06 32.22 M138.07 32.22 C106.55 32.46, 76.35 33.61, 8.06 32.22 M8.06 32.22 C4.58 30.74, 1.12 28.9, 0 24.17 M8.06 32.22 C1.6 33.26, 1.73 28.8, 0 24.17 M0 24.17 C-0.86 18.57, 0.02 11.97, 0 8.06 M0 24.17 C0.13 19.7, -0.31 16.29, 0 8.06 M0 8.06 C1.01 3.86, 1.19 -1.82, 8.06 0 M0 8.06 C-1.33 2.48, 2.61 -1.16, 8.06 0" stroke="#f08c00" stroke-width="4" fill="none"></path></g><g stroke-linecap="round" transform="translate(108.66625917653164 88.98208624321433) rotate(0 46.01590199339489 16.111111111111313)"><path d="M8.06 0 C29.49 -0.91, 49.33 -3.07, 83.98 0 C86.08 -0.11, 91.45 5.61, 92.03 8.06 C93.56 12.37, 91.05 17.2, 92.03 24.17 C91.11 26.81, 89.27 32.43, 83.98 32.22 C66.79 33.39, 49.01 31.13, 8.06 32.22 C-0.02 33.2, 1.94 31.59, 0 24.17 C1.18 16.15, 0.58 11, 0 8.06 C1.87 5.23, 5.47 0.55, 8.06 0" stroke="none" stroke-width="0" fill="#ffc9c9"></path><path d="M8.06 0 C27.29 -2.07, 50.84 -2.71, 83.98 0 M8.06 0 C36.52 0.86, 63.53 -0.28, 83.98 0 M83.98 0 C87.56 1.5, 90.29 2.66, 92.03 8.06 M83.98 0 C89.5 -0.43, 91.38 3.15, 92.03 8.06 M92.03 8.06 C92.5 13.3, 92.33 17.45, 92.03 24.17 M92.03 8.06 C92.41 12.26, 91.85 16.79, 92.03 24.17 M92.03 24.17 C91.78 28.85, 90.87 34.01, 83.98 32.22 M92.03 24.17 C92.44 31.18, 90.03 32.55, 83.98 32.22 M83.98 32.22 C64.65 33.75, 48.5 31.3, 8.06 32.22 M83.98 32.22 C54.78 32.43, 26.98 32.5, 8.06 32.22 M8.06 32.22 C3.16 33.69, -1.92 28.25, 0 24.17 M8.06 32.22 C2.64 31.54, -0.96 28.1, 0 24.17 M0 24.17 C-0.33 21.79, 1.36 15.75, 0 8.06 M0 24.17 C0.08 18.21, -0.38 13.05, 0 8.06 M0 8.06 C1.12 3.94, 1.9 -0.44, 8.06 0 M0 8.06 C-2.17 4.5, 4.43 0.8, 8.06 0" stroke="#e03131" stroke-width="4" fill="none"></path></g></svg>